<svg xmlns="http://www.w3.org/2000/svg" viewBox="0 0 64 64" width="64" height="64">
  <!-- Simplified logo for favicon -->
  <!-- Globe circle -->
  <circle cx="32" cy="32" r="28" fill="none" stroke="#2563eb" stroke-width="2.5"/>
  <!-- Meridians -->
  <line x1="32" y1="4" x2="32" y2="60" stroke="#2563eb" stroke-width="1.5"/>
  <path d="M 32 4 Q 42 16 42 32 Q 42 48 32 60" fill="none" stroke="#2563eb" stroke-width="1.5"/>
  <path d="M 32 4 Q 22 16 22 32 Q 22 48 32 60" fill="none" stroke="#2563eb" stroke-width="1.5"/>
  <!-- City skyline -->
  <rect x="18" y="48" width="4" height="10" fill="#1e40af" rx="1"/>
  <rect x="24" y="45" width="3" height="13" fill="#1e40af" rx="1"/>
  <rect x="29" y="47" width="3" height="11" fill="#1e40af" rx="1"/>
  <rect x="34" y="43" width="4" height="15" fill="#1e40af" rx="1"/>
  <rect x="40" y="46" width="3" height="12" fill="#1e40af" rx="1"/>
  <rect x="45" y="49" width="4" height="9" fill="#1e40af" rx="1"/>
  <!-- City dots -->
  <circle cx="26" cy="22" r="1.5" fill="#2563eb"/>
  <circle cx="38" cy="24" r="1.5" fill="#2563eb"/>
  <circle cx="28" cy="38" r="1.5" fill="#2563eb"/>
  <circle cx="36" cy="36" r="1.5" fill="#2563eb"/>
</svg>
