<svg xmlns="http://www.w3.org/2000/svg" viewBox="0 0 200 200" width="200" height="200">
  <!-- Background circle -->
  <circle cx="100" cy="100" r="95" fill="#2563eb" opacity="0.1"/>
  
  <!-- Globe/Map representation -->
  <circle cx="100" cy="100" r="60" fill="none" stroke="#2563eb" stroke-width="3"/>
  <path d="M 100 40 Q 120 60 120 80 Q 120 100 100 100 Q 80 100 80 80 Q 80 60 100 40" 
        fill="none" stroke="#2563eb" stroke-width="2"/>
  <path d="M 100 100 Q 120 120 120 140 Q 120 160 100 160 Q 80 160 80 140 Q 80 120 100 100" 
        fill="none" stroke="#2563eb" stroke-width="2"/>
  <line x1="100" y1="40" x2="100" y2="160" stroke="#2563eb" stroke-width="2"/>
  
  <!-- City skyline at the bottom -->
  <rect x="50" y="150" width="15" height="30" fill="#1e40af" rx="2"/>
  <rect x="70" y="140" width="12" height="40" fill="#1e40af" rx="2"/>
  <rect x="88" y="145" width="10" height="35" fill="#1e40af" rx="2"/>
  <rect x="105" y="135" width="14" height="45" fill="#1e40af" rx="2"/>
  <rect x="125" y="142" width="11" height="38" fill="#1e40af" rx="2"/>
  <rect x="142" y="148" width="13" height="32" fill="#1e40af" rx="2"/>
  
  <!-- Small dots representing cities on the globe -->
  <circle cx="85" cy="70" r="3" fill="#2563eb"/>
  <circle cx="115" cy="75" r="3" fill="#2563eb"/>
  <circle cx="90" cy="130" r="3" fill="#2563eb"/>
  <circle cx="110" cy="125" r="3" fill="#2563eb"/>
</svg>
